#tb 0: 1/35
0,          0,          0,        1,   192000, 0x64da83e8
0,          1,          1,        1,   192000, 0xf59ccccc
0,          2,          2,        1,   192000, 0xaaa06c5c
0,          3,          3,        1,   192000, 0xa98f82c0
0,          4,          4,        1,   192000, 0x164fbbdc
0,          5,          5,        1,   192000, 0x0b3abc0c
0,          6,          6,        1,   192000, 0x47661943
0,          7,          7,        1,   192000, 0x30711074
0,          8,          8,        1,   192000, 0x67684a84
0,          9,          9,        1,   192000, 0x1d9afa70
0,         10,         10,        1,   192000, 0x4fd28e78
0,         11,         11,        1,   192000, 0x9bc5c8cc
0,         12,         12,        1,   192000, 0xcf268b6c
0,         13,         13,        1,   192000, 0xdfe65fd4
0,         14,         14,        1,   192000, 0x47e75404
0,         15,         15,        1,   192000, 0xb3b5b448
0,         16,         16,        1,   192000, 0x826c94b4
0,         17,         17,        1,   192000, 0x158e95f8
0,         18,         18,        1,   192000, 0x576f031f
0,         19,         19,        1,   192000, 0xea3399e8
0,         20,         20,        1,   192000, 0x76b1e224
0,         21,         21,        1,   192000, 0x290073db
0,         22,         22,        1,   192000, 0x83741abf
0,         23,         23,        1,   192000, 0x50f9c4ec
0,         24,         24,        1,   192000, 0x6d8fdac0
0,         25,         25,        1,   192000, 0xe26e2600
0,         26,         26,        1,   192000, 0xbeb0e11c
0,         27,         27,        1,   192000, 0x38282fd4
0,         28,         28,        1,   192000, 0x13d0b790
0,         29,         29,        1,   192000, 0x0cf8fca9
0,         30,         30,        1,   192000, 0x64da83e8
0,         31,         31,        1,   192000, 0xf59ccccc
0,         32,         32,        1,   192000, 0xaaa06c5c
0,         33,         33,        1,   192000, 0xa98f82c0
0,         34,         34,        1,   192000, 0x164fbbdc
0,         35,         35,        1,   192000, 0x0b3abc0c
0,         36,         36,        1,   192000, 0x47661943
0,         37,         37,        1,   192000, 0x30711074
0,         38,         38,        1,   192000, 0x67684a84
0,         39,         39,        1,   192000, 0x1d9afa70
0,         40,         40,        1,   192000, 0x4fd28e78
0,         41,         41,        1,   192000, 0x9bc5c8cc
0,         42,         42,        1,   192000, 0xcf268b6c
0,         43,         43,        1,   192000, 0xdfe65fd4
0,         44,         44,        1,   192000, 0x47e75404
0,         45,         45,        1,   192000, 0xb3b5b448
0,         46,         46,        1,   192000, 0x826c94b4
0,         47,         47,        1,   192000, 0x158e95f8
0,         48,         48,        1,   192000, 0x576f031f
0,         49,         49,        1,   192000, 0xea3399e8
0,         50,         50,        1,   192000, 0x76b1e224
0,         51,         51,        1,   192000, 0x290073db
0,         52,         52,        1,   192000, 0x83741abf
0,         53,         53,        1,   192000, 0x50f9c4ec
0,         54,         54,        1,   192000, 0x6d8fdac0
0,         55,         55,        1,   192000, 0xe26e2600
0,         56,         56,        1,   192000, 0xbeb0e11c
0,         57,         57,        1,   192000, 0x38282fd4
0,         58,         58,        1,   192000, 0x13d0b790
0,         59,         59,        1,   192000, 0x0cf8fca9
0,         60,         60,        1,   192000, 0x64da83e8
0,         61,         61,        1,   192000, 0xf59ccccc
0,         62,         62,        1,   192000, 0xaaa06c5c
0,         63,         63,        1,   192000, 0xa98f82c0
0,         64,         64,        1,   192000, 0x164fbbdc
0,         65,         65,        1,   192000, 0x0b3abc0c
0,         66,         66,        1,   192000, 0x47661943
0,         67,         67,        1,   192000, 0x30711074
0,         68,         68,        1,   192000, 0x67684a84
0,         69,         69,        1,   192000, 0x1d9afa70
0,         70,         70,        1,   192000, 0x4fd28e78
0,         71,         71,        1,   192000, 0x9bc5c8cc
0,         72,         72,        1,   192000, 0xcf268b6c
0,         73,         73,        1,   192000, 0xdfe65fd4
0,         74,         74,        1,   192000, 0x47e75404
0,         75,         75,        1,   192000, 0xb3b5b448
0,         76,         76,        1,   192000, 0x826c94b4
0,         77,         77,        1,   192000, 0x158e95f8
0,         78,         78,        1,   192000, 0x576f031f
0,         79,         79,        1,   192000, 0xea3399e8
0,         80,         80,        1,   192000, 0x76b1e224
0,         81,         81,        1,   192000, 0x290073db
0,         82,         82,        1,   192000, 0x83741abf
0,         83,         83,        1,   192000, 0x50f9c4ec
0,         84,         84,        1,   192000, 0x6d8fdac0
0,         85,         85,        1,   192000, 0xe26e2600
0,         86,         86,        1,   192000, 0xbeb0e11c
0,         87,         87,        1,   192000, 0x38282fd4
0,         88,         88,        1,   192000, 0x13d0b790
0,         89,         89,        1,   192000, 0x0cf8fca9
0,         90,         90,        1,   192000, 0xfcb10883
0,         91,         91,        1,   192000, 0xfcb10883
0,         92,         92,        1,   192000, 0xd0ba80c4
0,         93,         93,        1,   192000, 0xd0ba80c4
0,         94,         94,        1,   192000, 0x690520d9
0,         95,         95,        1,   192000, 0x690520d9
0,         96,         96,        1,   192000, 0x5b621c3f
0,         97,         97,        1,   192000, 0x5b621c3f
0,         98,         98,        1,   192000, 0x689e231f
0,         99,         99,        1,   192000, 0x689e231f
0,        100,        100,        1,   192000, 0x20653ff2
0,        101,        101,        1,   192000, 0x20653ff2
0,        102,        102,        1,   192000, 0xc18b3231
0,        103,        103,        1,   192000, 0xc18b3231
0,        104,        104,        1,   192000, 0x6d87ec3d
0,        105,        105,        1,   192000, 0x6d87ec3d
0,        106,        106,        1,   192000, 0x1c5b53d6
0,        107,        107,        1,   192000, 0x1c5b53d6
0,        108,        108,        1,   192000, 0x152fdf12
0,        109,        109,        1,   192000, 0xde187291
0,        110,        110,        1,   192000, 0x167617a5
0,        111,        111,        1,   192000, 0x5067b8de
0,        112,        112,        1,   192000, 0xd02ae54e
0,        113,        113,        1,   192000, 0x0d6e9402
0,        114,        114,        1,   192000, 0xa8e98616
0,        115,        115,        1,   192000, 0x04762d1a
